<svg width="24" height="24" viewBox="0 0 24 24" fill="none" xmlns="http://www.w3.org/2000/svg">
<g clip-path="url(#clip0_479_2536)">
<path d="M12 24C18.6274 24 24 18.6274 24 12C24 5.37258 18.6274 0 12 0C5.37258 0 0 5.37258 0 12C0 18.6274 5.37258 24 12 24Z" fill="#C4C7C7"/>
<path d="M16.1149 9.27893C15.8225 9.11276 15.4465 9.11276 15.1123 9.27893L12.7728 10.6499L11.1854 11.5223L8.88773 12.8932C8.5953 13.0593 8.21932 13.0593 7.88512 12.8932L6.08877 11.8131C5.79634 11.6469 5.58747 11.3145 5.58747 10.9407V8.8635C5.58747 8.53116 5.75457 8.19881 6.08877 7.9911L7.88512 6.95252C8.17755 6.78635 8.55352 6.78635 8.88773 6.95252L10.6841 8.03264C10.9765 8.19881 11.1854 8.53116 11.1854 8.90504V10.276L12.7728 9.36202V7.94955C12.7728 7.61721 12.6057 7.28487 12.2715 7.07715L8.9295 5.12463C8.63708 4.95846 8.2611 4.95846 7.92689 5.12463L4.50131 7.11869C4.1671 7.28487 4 7.61721 4 7.94955V11.8546C4 12.1869 4.1671 12.5193 4.50131 12.727L7.88512 14.6795C8.17755 14.8457 8.55352 14.8457 8.88773 14.6795L11.1854 13.3501L12.7728 12.4362L15.0705 11.1068C15.3629 10.9407 15.7389 10.9407 16.0731 11.1068L17.8695 12.1454C18.1619 12.3116 18.3708 12.6439 18.3708 13.0178V15.095C18.3708 15.4273 18.2037 15.7596 17.8695 15.9674L16.1149 17.0059C15.8225 17.1721 15.4465 17.1721 15.1123 17.0059L13.3159 15.9674C13.0235 15.8012 12.8146 15.4688 12.8146 15.095V13.7656L11.2272 14.6795V16.0504C11.2272 16.3828 11.3943 16.7151 11.7285 16.9228L15.1123 18.8754C15.4047 19.0415 15.7807 19.0415 16.1149 18.8754L19.4987 16.9228C19.7911 16.7567 20 16.4243 20 16.0504V12.1039C20 11.7715 19.8329 11.4392 19.4987 11.2315L16.1149 9.27893Z" fill="white"/>
</g>
<defs>
<clipPath id="clip0_479_2536">
<rect width="24" height="24" fill="white"/>
</clipPath>
</defs>
</svg>
