<svg width="24" height="24" viewBox="0 0 24 24" fill="none" xmlns="http://www.w3.org/2000/svg">
<g clip-path="url(#clip0_16_405)">
<path d="M24 12C24 14.3734 23.2962 16.6935 21.9776 18.6668C20.6591 20.6402 18.7849 22.1783 16.5922 23.0866C14.3995 23.9948 11.9867 24.2324 9.65892 23.7694C7.33115 23.3064 5.19295 22.1635 3.51472 20.4853C1.83649 18.8071 0.693605 16.6689 0.230582 14.3411C-0.232441 12.0133 0.00519936 9.60051 0.913451 7.4078C1.8217 5.21509 3.35977 3.34094 5.33316 2.02236C7.30655 0.703788 9.62663 0 12 0C15.1826 0 18.2348 1.26428 20.4853 3.51472C22.7357 5.76516 24 8.8174 24 12Z" fill="#C4C7C7"/>
<path fill-rule="evenodd" clip-rule="evenodd" d="M8.52872 5.47964L11.2865 6.21818L11.9029 3.92073L13.2818 4.29491L12.6895 6.49745L13.8142 6.79964L14.4076 4.57309L15.8105 4.94836L15.2062 7.18691C15.2062 7.18691 17.4971 7.69418 18.036 9.55745C18.5749 11.4207 16.8513 12.3993 16.3189 12.4364C16.3189 12.4364 18.3262 13.5371 17.6367 15.7025C16.9473 17.868 14.8309 18.2553 12.6044 17.7589L12 20.0804L10.5971 19.7051L11.2135 17.4196L10.1007 17.1164L9.48436 19.4182L8.09236 19.044L8.70982 16.7531L5.87891 15.9895L6.59236 14.4055C6.59236 14.4055 7.39091 14.6236 7.69309 14.6956C7.99527 14.7676 8.18945 14.4535 8.27454 14.1393C8.35963 13.8251 9.64145 8.61818 9.76254 8.18945C9.88363 7.76073 9.83454 7.42582 9.32618 7.29382C8.81782 7.16182 8.12618 6.95564 8.12618 6.95564L8.52872 5.47964ZM11.3105 12.3753L10.5469 15.4113C10.5469 15.4113 14.3335 16.7782 14.8178 14.8549C15.3022 12.9316 11.3105 12.3753 11.3105 12.3753ZM11.6618 10.9353L12.4113 8.15345C12.4113 8.15345 15.6535 8.73382 15.2542 10.2818C14.8549 11.8298 12.9436 11.2364 11.6618 10.9353Z" fill="white"/>
</g>
<defs>
<clipPath id="clip0_16_405">
<rect width="24" height="24" fill="white"/>
</clipPath>
</defs>
</svg>
