<svg width="24" height="24" viewBox="0 0 24 24" fill="none" xmlns="http://www.w3.org/2000/svg">
<g clip-path="url(#clip0_16_452)">
<circle cx="12" cy="12" r="12" fill="#C4C7C7"/>
<path d="M17.9382 15.192L15.9572 17.2846C15.9142 17.3301 15.8621 17.3663 15.8042 17.3911C15.7463 17.4158 15.6838 17.4286 15.6207 17.4286H6.22998C6.18517 17.4286 6.14134 17.4157 6.10387 17.3915C6.0664 17.3673 6.03692 17.3328 6.01906 17.2923C6.0012 17.2519 5.99573 17.2071 6.00333 17.1636C6.01093 17.1201 6.03126 17.0798 6.06183 17.0475L8.04429 14.9549C8.08724 14.9095 8.13917 14.8734 8.19688 14.8486C8.2546 14.8238 8.31686 14.811 8.37981 14.8109H17.77C17.8148 14.8109 17.8587 14.8238 17.8962 14.848C17.9336 14.8722 17.9631 14.9067 17.981 14.9471C17.9988 14.9876 18.0043 15.0323 17.9967 15.0758C17.9891 15.1193 17.9688 15.1597 17.9382 15.192ZM15.9572 10.978C15.9142 10.9325 15.8621 10.8963 15.8042 10.8715C15.7463 10.8468 15.6838 10.834 15.6207 10.834H6.22998C6.18517 10.834 6.14134 10.8469 6.10387 10.8711C6.0664 10.8953 6.03692 10.9298 6.01906 10.9702C6.0012 11.0107 5.99573 11.0555 6.00333 11.099C6.01093 11.1425 6.03126 11.1828 6.06183 11.2151L8.04429 13.3077C8.08724 13.3531 8.13917 13.3892 8.19688 13.414C8.2546 13.4388 8.31686 13.4516 8.37981 13.4517H17.77C17.8148 13.4517 17.8587 13.4388 17.8962 13.4146C17.9336 13.3904 17.9631 13.3559 17.981 13.3155C17.9988 13.275 18.0043 13.2303 17.9967 13.1868C17.9891 13.1433 17.9688 13.1029 17.9382 13.0706L15.9572 10.978ZM6.22998 9.47484H15.6207C15.6838 9.47486 15.7463 9.4621 15.8042 9.43733C15.8621 9.41256 15.9142 9.37632 15.9572 9.33086L17.9382 7.23822C17.9688 7.20595 17.9891 7.16559 17.9967 7.12209C18.0043 7.0786 17.9988 7.03386 17.981 6.99338C17.9631 6.95291 17.9336 6.91845 17.8962 6.89425C17.8587 6.87004 17.8148 6.85715 17.77 6.85715H8.37981C8.31686 6.85725 8.2546 6.87009 8.19688 6.89485C8.13917 6.91961 8.08724 6.95578 8.04429 7.00112L6.06234 9.09376C6.0318 9.12599 6.01148 9.16632 6.00386 9.20976C5.99625 9.25321 6.00167 9.29791 6.01947 9.33837C6.03727 9.37883 6.06666 9.41328 6.10406 9.43752C6.14145 9.46177 6.18521 9.47473 6.22998 9.47484Z" fill="white"/>
</g>
<defs>
<clipPath id="clip0_16_452">
<rect width="24" height="24" fill="white"/>
</clipPath>
</defs>
</svg>
