<svg width="24" height="24" viewBox="0 0 24 24" fill="none" xmlns="http://www.w3.org/2000/svg">
<g clip-path="url(#clip0_479_2520)">
<circle cx="12" cy="12" r="12" fill="#C4C7C7"/>
<path d="M17.3316 13.6293C17.3224 13.6779 17.1779 13.8238 17.0335 13.9301C16.6094 14.237 15.8504 14.5226 15.079 14.6594C14.6396 14.7384 14.2001 14.7505 14.068 14.6867C13.9819 14.6442 13.9697 14.6108 14.0004 14.5014C14.0649 14.2735 14.2739 14.0243 14.5996 13.7904C14.7656 13.6719 15.4386 13.2677 15.752 13.0976C16.2683 12.818 16.6862 12.6509 16.969 12.6114C17.0581 12.5993 17.1656 12.5962 17.1994 12.6114C17.2548 12.6327 17.3162 12.7937 17.3408 12.9882C17.3531 13.0915 17.347 13.5473 17.3316 13.6293Z" fill="#C4C7C7"/>
<path d="M10.0914 14.6351C10.073 14.6715 9.9808 14.711 9.87632 14.7262C9.77183 14.7414 9.45224 14.7323 9.27092 14.711C8.61943 14.6259 7.92799 14.4284 7.42401 14.1854C7.14129 14.0486 6.93846 13.9119 6.78788 13.763L6.70184 13.6749L6.69262 13.5594C6.67725 13.3589 6.68033 13.0429 6.70491 12.9305C6.72028 12.8363 6.75408 12.7451 6.80018 12.6631C6.82476 12.6327 6.82476 12.6327 6.93539 12.6327C7.07061 12.6327 7.18431 12.654 7.36869 12.7117C7.74668 12.8272 8.30905 13.1067 8.99435 13.5139C9.55979 13.8481 9.77183 14.0122 9.93471 14.237C10.0453 14.3768 10.1191 14.5743 10.0914 14.6351Z" fill="#C4C7C7"/>
<path fill-rule="evenodd" clip-rule="evenodd" d="M14.3599 19.1922C14.406 19.019 14.4429 18.8732 14.4429 18.8641C14.4429 18.855 14.363 18.8489 14.0987 18.861H13.7453L13.7084 18.9157C13.6777 18.9674 13.6715 18.9704 13.6408 18.9643C13.6223 18.9613 13.4226 18.9582 13.1952 18.9582H12.7834L12.6943 18.8215L12.6021 18.6848L12.5345 18.6787L12.4669 18.6727L12.4638 18.3536L12.4607 18.0346L12.5345 18.0073C12.7895 17.9192 13.0692 17.7247 13.2228 17.5303C13.2997 17.424 13.3611 17.3055 13.4011 17.1809C13.4287 17.0897 13.4472 16.8619 13.4472 16.5976C13.4472 16.4122 13.4257 16.3363 13.3519 16.2391C13.2874 16.154 13.2351 16.1145 13.1214 16.0598L13.0262 16.0142L12.1719 16.0112C11.4466 16.0112 11.3083 16.0112 11.2561 16.0264C11.1024 16.0659 10.9826 16.1844 10.9396 16.3363C10.918 16.4031 10.918 16.4305 10.9211 16.7312C10.9212 16.7375 10.9214 16.7437 10.9215 16.7497C10.9273 17.0361 10.9278 17.0608 10.9519 17.1262C11.0717 17.4543 11.3913 17.7247 11.9352 17.9617L12.1043 18.0346L12.1073 18.3506L12.1104 18.6666H11.9813L11.8799 18.8185L11.7816 18.9704L11.3974 18.9613C11.3298 18.9593 11.2596 18.9574 11.193 18.9555C11.054 18.9516 10.931 18.9482 10.8812 18.9461L10.749 18.94L10.7367 18.9005L10.7244 18.861L10.3403 18.858L9.95618 18.855V18.8914C9.95618 18.9096 9.96233 18.9309 9.97769 18.9431C9.9869 18.9491 10.0329 18.9886 10.079 19.028L10.0791 19.0281L10.159 19.098L10.1682 19.1952C10.1744 19.2469 10.1897 19.3411 10.202 19.4018L10.2266 19.5142L10.3219 19.5051L10.4171 19.499L10.4387 19.5872C10.4786 19.7482 10.5339 19.9031 10.6107 20.049C10.6814 20.1887 10.7122 20.2373 10.7214 20.2282C10.7214 20.2267 10.7283 20.2168 10.7387 20.202C10.749 20.1872 10.7629 20.1675 10.7767 20.1462L10.8289 20.0672L10.8197 19.6358C10.8136 19.3958 10.8105 19.2013 10.8136 19.1983C10.8166 19.1952 10.9088 19.2074 11.0164 19.2226C11.6863 19.3168 12.3624 19.3319 13.0354 19.2651C13.1983 19.2499 13.5701 19.2013 13.6223 19.1892L13.6469 19.1831V20.0247L13.7115 20.128L13.776 20.2313L13.7944 20.1887C13.8037 20.1644 13.8713 20.0034 13.945 19.8302L14.0802 19.5142H14.1786C14.211 19.5172 14.2405 19.5145 14.2727 19.5116L14.2769 19.5112C14.2769 19.5051 14.3138 19.3654 14.3599 19.1922ZM12.7127 19.7786C12.7219 19.7847 12.7619 19.7695 12.8203 19.7361C12.8996 19.6915 12.9313 19.6741 12.9434 19.6478C12.9519 19.6292 12.9506 19.6061 12.9493 19.5659L12.9463 19.4839L12.1288 19.4808L11.3114 19.4778V19.651L11.4036 19.6966C11.4558 19.7209 11.5111 19.7421 11.5665 19.7604L11.6371 19.7816L11.6771 19.6996L11.717 19.6176L11.8031 19.6267C11.8492 19.6297 11.8891 19.6358 11.8891 19.6358C11.8891 19.6358 11.9322 19.7026 11.9875 19.7816C12.092 19.9366 12.1104 19.9518 12.1964 19.9427C12.2494 19.9398 12.2573 19.9313 12.4221 19.7549C12.4295 19.747 12.4373 19.7386 12.4454 19.73L12.5314 19.6388L12.6144 19.7057C12.6342 19.72 12.6534 19.7349 12.6696 19.7475C12.6912 19.7642 12.7075 19.7769 12.7127 19.7786Z" fill="#C4C7C7"/>
<path d="M20.503 16.0294C20.4999 16.0173 20.4999 15.996 20.4968 15.9626C19.7593 15.8836 17.6542 15.835 15.6998 17.43C15.6998 17.43 15.0698 14.5741 12.1197 14.5741C9.16951 14.5741 8.07549 17.43 8.07549 17.43C6.42218 15.6709 4.20957 15.7985 3.41058 15.914C3.41058 15.9322 3.4075 15.9535 3.4075 15.9717C3.38292 16.4122 3.39521 16.6219 3.46896 16.8983C3.69944 17.7642 4.40932 18.7182 5.52178 19.654C7.3441 21.1853 9.81485 22.2912 11.6863 22.4188C13.6377 22.5494 16.5172 21.4222 18.4348 19.7755C18.736 19.5112 19.0187 19.2317 19.283 18.9339C19.4735 18.7152 19.7562 18.3384 19.7347 18.3384C19.7286 18.3384 19.7347 18.3324 19.747 18.3263C19.7562 18.3202 19.7654 18.3111 19.7593 18.305C19.7562 18.302 19.7624 18.2929 19.7716 18.2898C19.7808 18.2868 19.787 18.2807 19.7839 18.2746C19.7808 18.2686 19.7839 18.2625 19.7962 18.2595C19.8054 18.2564 19.8085 18.2473 19.8054 18.2412C19.8023 18.2351 19.8054 18.2291 19.8115 18.2291C19.8177 18.2291 19.8238 18.22 19.8238 18.2139C19.8238 18.2078 19.83 18.1987 19.8361 18.1987C19.8423 18.1987 19.8484 18.1926 19.8484 18.1865C19.8576 18.1622 19.873 18.1379 19.8884 18.1167C19.9345 18.0468 20.1188 17.7217 20.1434 17.667C20.3186 17.2751 20.4292 16.9257 20.4815 16.5763C20.4999 16.4092 20.5153 16.1023 20.503 16.0294ZM12.8203 19.736C12.7619 19.7694 12.722 19.7846 12.7128 19.7786C12.7035 19.7755 12.6605 19.7391 12.6144 19.7056L12.5314 19.6388L12.4454 19.7299C12.2579 19.9305 12.2518 19.9396 12.1965 19.9426C12.1104 19.9517 12.092 19.9365 11.9875 19.7816C11.9322 19.7026 11.8892 19.6358 11.8892 19.6358C11.8892 19.6358 11.8492 19.6297 11.8031 19.6266L11.7171 19.6175L11.6771 19.6996L11.6372 19.7816L11.5665 19.7603C11.5112 19.7421 11.4559 19.7208 11.4036 19.6965L11.3114 19.651V19.4778L12.1289 19.4808L12.9463 19.4839L12.9494 19.5659C12.9525 19.6631 12.9555 19.6601 12.8203 19.736ZM14.3568 19.1891C14.3108 19.3623 14.2739 19.5021 14.2739 19.5082C14.2401 19.5112 14.2093 19.5142 14.1755 19.5112H14.0772L13.9451 19.8302C13.8713 20.0034 13.8037 20.1644 13.7945 20.1887L13.776 20.2313L13.7115 20.128L13.647 20.0247V19.1831L13.6224 19.1891C13.5701 19.2013 13.1983 19.2499 13.0354 19.2651C12.3624 19.3319 11.6863 19.3168 11.0164 19.2226C10.9089 19.2074 10.8167 19.1952 10.8136 19.1983C10.8105 19.2013 10.8136 19.3957 10.8197 19.6358L10.829 20.0672L10.7767 20.1462C10.7491 20.1887 10.7214 20.2252 10.7214 20.2282C10.7122 20.2373 10.6815 20.1887 10.6108 20.049C10.5339 19.9031 10.4786 19.7482 10.4387 19.5872L10.4172 19.499L10.3219 19.5051L10.2266 19.5142L10.2021 19.4018C10.1898 19.3411 10.1744 19.2469 10.1683 19.1952L10.159 19.098L10.0791 19.0281C10.033 18.9886 9.98694 18.9491 9.97772 18.9431C9.96236 18.9309 9.95621 18.9096 9.95621 18.8914V18.8549L10.3403 18.858L10.7245 18.861L10.7368 18.9005L10.7491 18.94L10.8812 18.9461C10.955 18.9491 11.1885 18.9552 11.3975 18.9613L11.7816 18.9704L11.88 18.8185L11.9814 18.6666H12.1104L12.1074 18.3506L12.1043 18.0346L11.9353 17.9617C11.3913 17.7247 11.0717 17.4543 10.9519 17.1262C10.9273 17.0594 10.9273 17.0351 10.9212 16.7312C10.9181 16.4305 10.9181 16.4031 10.9396 16.3363C10.9826 16.1844 11.1025 16.0659 11.2561 16.0264C11.3084 16.0112 11.4467 16.0112 12.1719 16.0112L13.0262 16.0142L13.1215 16.0598C13.2352 16.1145 13.2874 16.154 13.3519 16.239C13.4257 16.3363 13.4472 16.4122 13.4472 16.5976C13.4472 16.8619 13.4288 17.0897 13.4011 17.1809C13.3612 17.3055 13.2997 17.4239 13.2229 17.5303C13.0692 17.7247 12.7896 17.9192 12.5345 18.0073L12.4608 18.0346L12.4638 18.3536L12.4669 18.6727L12.5345 18.6787L12.6021 18.6848L12.6943 18.8215L12.7834 18.9582H13.1952C13.4226 18.9582 13.6224 18.9613 13.6408 18.9643C13.6715 18.9704 13.6777 18.9674 13.7084 18.9157L13.7453 18.861H14.0987C14.3722 18.861 14.4521 18.8641 14.4521 18.8732C14.4429 18.8701 14.4029 19.019 14.3568 19.1891Z" fill="white"/>
<path d="M20.4784 15.7195C20.4722 15.5828 20.4599 15.3914 20.4507 15.2972C20.3186 13.9179 19.9621 12.7907 19.286 11.5967C19.2584 11.5511 19.2338 11.5055 19.2184 11.4691C19.2123 11.4599 19.2092 11.4508 19.2061 11.4448C19.3014 11.1622 19.6917 9.98033 20.0021 8.62833C20.4231 6.79325 20.6904 4.64828 19.873 4.00418C19.873 4.00418 18.4594 3.90088 16.5664 5.73596C16.0532 6.24334 15.583 6.79325 15.165 7.37963L15.0329 7.33709C14.2708 7.091 13.481 6.93909 12.6851 6.88744C12.4454 6.86921 11.5511 6.86921 11.2592 6.88744C10.3772 6.94516 9.70114 7.07581 8.93287 7.34013C8.90214 7.35228 8.87448 7.3614 8.84682 7.37051C8.41352 6.78718 7.93105 6.2403 7.39941 5.73899C5.42957 3.8948 3.96372 4.00114 3.96372 4.00114C3.09711 4.6665 3.39213 6.9087 3.84079 8.80455C4.13581 10.0593 4.49843 11.1622 4.63365 11.5602C4.62443 11.5815 4.61214 11.6058 4.59984 11.627C3.88382 13.0611 3.49661 14.4435 3.40442 15.914C4.20649 15.7985 6.41603 15.6679 8.07241 17.43C8.07241 17.43 9.16642 14.5741 12.1166 14.5741C15.0667 14.5741 15.6967 17.43 15.6967 17.43C17.6512 15.835 19.7562 15.8866 20.4937 15.9626C20.4907 15.9018 20.4845 15.8107 20.4784 15.7195ZM5.21446 10.4148C5.21446 10.4148 4.06513 7.57407 4.36014 5.95167C4.40931 5.67823 4.50151 5.43821 4.64594 5.25592C4.64594 5.25592 5.94892 5.38352 8.0509 7.69256C8.0509 7.69256 7.6514 7.88397 7.11669 8.29109C7.11669 8.29109 7.11361 8.29413 7.11054 8.29413C6.52973 8.73467 5.78605 9.43346 5.21446 10.4148ZM10.0914 14.6349C10.073 14.6713 9.98078 14.7108 9.8763 14.726C9.77181 14.7412 9.45222 14.7321 9.27091 14.7108C8.61942 14.6258 7.92798 14.4283 7.42399 14.1852C7.14127 14.0485 6.93845 13.9118 6.78787 13.7629L6.70182 13.6748L6.6926 13.5593C6.67724 13.3588 6.68031 13.0429 6.70489 12.9304C6.72026 12.8363 6.75406 12.7451 6.80016 12.6631C6.82474 12.6327 6.82474 12.6327 6.93537 12.6327C7.07059 12.6327 7.18429 12.654 7.36868 12.7117C7.74666 12.8271 8.30904 13.1067 8.99433 13.5138C9.55977 13.848 9.77182 14.012 9.93469 14.2369C10.0453 14.3766 10.1191 14.5741 10.0914 14.6349ZM17.3316 13.6292C17.3223 13.6778 17.1779 13.8237 17.0335 13.93C16.6094 14.2369 15.8503 14.5225 15.079 14.6592C14.6396 14.7382 14.2001 14.7503 14.068 14.6865C13.9819 14.644 13.9696 14.6106 14.0004 14.5012C14.0649 14.2733 14.2739 14.0242 14.5996 13.7903C14.7656 13.6718 15.4386 13.2677 15.752 13.0975C16.2683 12.818 16.6862 12.6509 16.9689 12.6114C17.0581 12.5993 17.1656 12.5962 17.1994 12.6114C17.2547 12.6327 17.3162 12.7937 17.3408 12.9882C17.3531 13.0915 17.3469 13.5472 17.3316 13.6292ZM16.8214 8.29109L16.8153 8.28805C16.299 7.88093 15.9118 7.68952 15.9118 7.68952C17.9431 5.38048 19.2 5.25288 19.2 5.25288C19.3383 5.43821 19.4274 5.67519 19.4766 5.94863C19.7624 7.57103 18.653 10.4148 18.653 10.4148C18.1889 9.59752 17.5651 8.87443 16.8214 8.29109Z" fill="white"/>
<path d="M19.4797 5.94869C19.24 5.91831 18.106 5.91223 16.8215 8.29138L16.8153 8.28834C16.2991 7.88118 15.9119 7.68975 15.9119 7.68975C17.9432 5.38049 19.2 5.25288 19.2 5.25288C19.3414 5.43822 19.4305 5.67523 19.4797 5.94869Z" fill="#C4C7C7"/>
<path d="M18.656 10.4149C18.1889 9.59454 17.5682 8.87449 16.8214 8.29115C18.106 5.91223 19.2368 5.91831 19.4796 5.94869C19.7654 7.57414 18.656 10.4149 18.656 10.4149Z" fill="#C4C7C7"/>
<path d="M19.5257 5.95781C19.5103 5.95477 19.495 5.95173 19.4796 5.94869L19.5257 5.95781Z" fill="#FF8300"/>
<path d="M8.05088 7.68975C8.05088 7.68975 7.65139 7.88118 7.11667 8.28834C7.11667 8.28834 7.1136 8.29138 7.11052 8.29138C5.77989 5.90919 4.60905 5.91831 4.35706 5.94869C4.40622 5.67523 4.49842 5.43519 4.64285 5.25288C4.64593 5.25288 5.9489 5.38049 8.05088 7.68975Z" fill="#C4C7C7"/>
<path d="M7.11354 8.29115C6.52966 8.73473 5.78598 9.43048 5.21439 10.4149C5.21439 10.4149 4.06506 7.57414 4.36007 5.94869C4.60899 5.91831 5.7829 5.91223 7.11354 8.29115Z" fill="#C4C7C7"/>
<path d="M4.3602 5.94869C4.34484 5.95173 4.3264 5.95477 4.31104 5.95781L4.3602 5.94869Z" fill="#FF8300"/>
<path d="M15.5461 11.9918C15.5461 11.9918 14.5628 12.0525 14.6857 11.2929C14.8086 10.5333 15.5769 10.4421 15.792 10.4725C16.0071 10.5029 16.8676 10.8068 16.7139 11.4448C16.5603 12.0829 16.3451 11.9614 16.2222 11.9918C16.0993 12.0222 15.5461 11.9918 15.5461 11.9918Z" fill="#C4C7C7"/>
<path d="M8.2937 11.9918C8.2937 11.9918 7.31032 12.0525 7.43324 11.2929C7.55616 10.5333 8.32443 10.4421 8.53955 10.4725C8.75466 10.5029 9.61512 10.8068 9.46147 11.4448C9.30781 12.0829 9.0927 11.9614 8.96977 11.9918C8.84685 12.0222 8.2937 11.9918 8.2937 11.9918Z" fill="#C4C7C7"/>
</g>
<defs>
<clipPath id="clip0_479_2520">
<rect width="24" height="24" fill="white"/>
</clipPath>
</defs>
</svg>
