<svg width="24" height="24" viewBox="0 0 24 24" fill="none" xmlns="http://www.w3.org/2000/svg">
<g clip-path="url(#clip0_16_411)">
<path d="M12 24C18.6274 24 24 18.6274 24 12C24 5.37258 18.6274 0 12 0C5.37258 0 0 5.37258 0 12C0 18.6274 5.37258 24 12 24Z" fill="#C4C7C7"/>
<path d="M15.9053 7.90049C15.3233 6.42149 13.8638 6.28799 12.1643 6.61799L11.559 4.50824L10.275 4.87649L10.8645 6.93149C10.527 7.02749 10.1835 7.13399 9.84229 7.23899L9.24979 5.17049L7.96654 5.53799L8.57029 7.64774C8.29429 7.73324 8.02279 7.81724 7.75654 7.89374L7.75429 7.88624L5.98279 8.39399L6.37654 9.76649C6.37654 9.76649 7.32004 9.47549 7.30879 9.49799C7.82929 9.34874 8.08504 9.60224 8.20879 9.84899L8.89879 12.252C8.93404 12.2422 8.98129 12.2302 9.03679 12.222L8.90104 12.261L9.86629 15.6285C9.89029 15.7987 9.86929 16.0875 9.50629 16.1925C9.52654 16.2022 8.57179 16.4595 8.57179 16.4595L8.75704 18.0667L10.428 17.5867C10.7393 17.499 11.0468 17.4165 11.3475 17.3317L11.9603 19.4655L13.2428 19.098L12.6375 16.9867C12.9816 16.8955 13.3246 16.8005 13.6665 16.7017L14.268 18.804L15.5528 18.4357L14.9423 16.3057C17.0655 15.5625 18.4208 14.5852 18.027 12.5032C17.7105 10.8277 16.734 10.3192 15.4238 10.3762C16.0598 9.78374 16.3335 8.98274 15.9053 7.90124V7.90049ZM15.4178 12.978C15.8753 14.5732 13.0928 15.1747 12.2228 15.4252L11.412 12.5977C12.282 12.348 14.94 11.3152 15.417 12.9787L15.4178 12.978ZM13.6763 9.16049C14.0918 10.6117 11.766 11.0955 11.0408 11.3032L10.3058 8.73899C11.0303 8.53124 13.242 7.64774 13.6763 9.16124V9.16049Z" fill="white"/>
</g>
<defs>
<clipPath id="clip0_16_411">
<rect width="24" height="24" fill="white"/>
</clipPath>
</defs>
</svg>
