<svg width="24" height="24" viewBox="0 0 24 24" fill="none" xmlns="http://www.w3.org/2000/svg">
<g clip-path="url(#clip0_479_2580)">
<path d="M12 24C18.6274 24 24 18.6274 24 12C24 5.37258 18.6274 0 12 0C5.37258 0 0 5.37258 0 12C0 18.6274 5.37258 24 12 24Z" fill="url(#paint0_linear_479_2580)"/>
<path d="M17.2516 16.7814L13.1938 6.97113C12.965 6.46392 12.6248 6.2165 12.1763 6.2165H11.8175C11.3691 6.2165 11.0289 6.46392 10.8 6.97113L9.03403 11.2454H7.69795C7.29898 11.2485 6.97423 11.5701 6.97114 11.9722V11.9814C6.97423 12.3804 7.29898 12.7052 7.69795 12.7082H8.41547L6.7299 16.7814C6.69898 16.8711 6.68042 16.9639 6.68042 17.0598C6.68042 17.2887 6.75155 17.468 6.87836 17.6072C7.00516 17.7464 7.18764 17.8144 7.4165 17.8144C7.56805 17.8113 7.71341 17.7649 7.83403 17.6753C7.96392 17.5856 8.05362 17.4557 8.12475 17.3072L9.98042 12.7052H11.267C11.666 12.7021 11.9907 12.3804 11.9938 11.9784V11.9598C11.9907 11.5608 11.666 11.2361 11.267 11.233H10.5804L11.9969 7.70412L15.8567 17.3041C15.9278 17.4526 16.0175 17.5825 16.1474 17.6722C16.268 17.7619 16.4165 17.8082 16.565 17.8113C16.7938 17.8113 16.9732 17.7433 17.1031 17.6041C17.233 17.465 17.301 17.2856 17.301 17.0567C17.3041 16.9639 17.2887 16.868 17.2516 16.7814Z" fill="white"/>
</g>
<defs>
<linearGradient id="paint0_linear_479_2580" x1="20.947" y1="4.47174" x2="3.09103" y2="19.4957" gradientUnits="userSpaceOnUse">
<stop stop-color="#B6509E"/>
<stop offset="1" stop-color="#2EBAC6"/>
</linearGradient>
<clipPath id="clip0_479_2580">
<rect width="24" height="24" fill="white"/>
</clipPath>
</defs>
</svg>
