<svg width="24" height="24" viewBox="0 0 24 24" fill="none" xmlns="http://www.w3.org/2000/svg">
<g clip-path="url(#clip0_16_456)">
<path d="M12 24C18.6274 24 24 18.6274 24 12C24 5.37258 18.6274 0 12 0C5.37258 0 0 5.37258 0 12C0 18.6274 5.37258 24 12 24Z" fill="#C4C7C7"/>
<path d="M9.1957 4.32509C8.98195 4.29209 8.97295 4.28759 9.07345 4.27259C9.2662 4.24259 9.7222 4.28384 10.0364 4.35809C10.7692 4.53284 11.4359 4.97909 12.1484 5.77184L12.3374 5.98184L12.6074 5.93909C13.7474 5.75534 14.9077 5.90159 15.8774 6.34934C16.1444 6.47234 16.5652 6.71759 16.6177 6.78134C16.6349 6.80084 16.6657 6.93059 16.6859 7.06859C16.7579 7.54634 16.7219 7.91234 16.5764 8.18609C16.4969 8.33459 16.4924 8.38109 16.5457 8.50859C16.571 8.56125 16.6105 8.60576 16.6598 8.63705C16.7092 8.66834 16.7663 8.68516 16.8247 8.68559C17.0662 8.68559 17.3257 8.29559 17.4457 7.75334L17.4937 7.53809L17.5882 7.64534C18.1072 8.23334 18.5144 9.03509 18.5842 9.60509L18.6029 9.75434L18.5152 9.61934C18.3652 9.38684 18.2152 9.22784 18.0217 9.09959C17.6737 8.86934 17.3054 8.79134 16.3304 8.73959C15.4499 8.69309 14.9512 8.61809 14.4577 8.45684C13.6169 8.18309 13.1932 7.81784 12.1942 6.50759C11.7509 5.92559 11.4764 5.60384 11.2042 5.34509C10.5839 4.75559 9.97495 4.44659 9.1957 4.32509Z" fill="white"/>
<path d="M16.8164 5.62478C16.8389 5.23478 16.8914 4.97753 16.9979 4.74278C17.0399 4.64978 17.0797 4.57328 17.0857 4.57328C17.079 4.62593 17.0651 4.67741 17.0444 4.72628C16.9672 4.95428 16.9544 5.26628 17.0077 5.62853C17.0752 6.08903 17.1142 6.15503 17.6002 6.65228C17.8289 6.88553 18.0944 7.17953 18.1904 7.30628L18.3652 7.53578L18.1904 7.37153C17.9767 7.17128 17.4847 6.77903 17.3759 6.72353C17.3032 6.68603 17.2919 6.68678 17.2469 6.73103C17.2057 6.77303 17.1967 6.83453 17.1914 7.12778C17.1824 7.58378 17.1202 7.87778 16.9694 8.17028C16.8884 8.32778 16.8757 8.29478 16.9492 8.11553C17.0039 7.98203 17.0092 7.92353 17.0092 7.48178C17.0092 6.59378 16.9034 6.38078 16.2847 6.01478C16.0985 5.90675 15.9073 5.80763 15.7117 5.71778C15.615 5.67901 15.5213 5.6334 15.4312 5.58128C15.4484 5.56403 16.0514 5.73953 16.2937 5.83328C16.6552 5.97203 16.7144 5.99003 16.7587 5.97278C16.7879 5.96153 16.8022 5.87603 16.8164 5.62478ZM9.61116 7.14353C9.17691 6.54578 8.90841 5.62853 8.96616 4.94303L8.98416 4.73078L9.08316 4.74878C9.26916 4.78253 9.58941 4.90178 9.73941 4.99328C10.1504 5.24303 10.3289 5.57228 10.5097 6.41678C10.5629 6.66428 10.6327 6.94403 10.6649 7.03928C10.7159 7.19153 10.9109 7.54778 11.0699 7.77953C11.1839 7.94603 11.1074 8.02478 10.8554 8.00228C10.4699 7.96703 9.94791 7.60703 9.61116 7.14353ZM16.2899 11.5948C14.2597 10.7773 13.5449 10.0678 13.5449 8.87078C13.5449 8.69453 13.5509 8.55053 13.5577 8.55053C13.5652 8.55053 13.6439 8.60828 13.7324 8.67953C14.1442 9.00953 14.6054 9.15053 15.8812 9.33653C16.6319 9.44678 17.0549 9.53528 17.4449 9.66428C18.6839 10.0753 19.4504 10.9093 19.6334 12.0448C19.6859 12.3748 19.6552 12.9935 19.5689 13.3198C19.5014 13.5778 19.2937 14.042 19.2389 14.06C19.2239 14.0645 19.2089 14.0068 19.2044 13.9265C19.1834 13.5005 18.9682 13.085 18.6059 12.7738C18.1942 12.4205 17.6414 12.1385 16.2892 11.5948H16.2899ZM14.8649 11.9338C14.8409 11.7889 14.8081 11.6456 14.7667 11.5048L14.7142 11.3503L14.8109 11.4583C14.9437 11.6083 15.0494 11.7988 15.1379 12.0538C15.2062 12.248 15.2137 12.3058 15.2129 12.6215C15.2129 12.932 15.2047 12.9965 15.1417 13.172C15.0541 13.4294 14.9074 13.6626 14.7134 13.853C14.3422 14.231 13.8659 14.4395 13.1774 14.5265C13.0574 14.5415 12.7094 14.567 12.4027 14.5828C11.6302 14.6233 11.1224 14.7058 10.6657 14.8663C10.6245 14.8847 10.5802 14.8954 10.5352 14.8978C10.5172 14.879 10.8277 14.6938 11.0849 14.57C11.4472 14.3953 11.8072 14.3 12.6149 14.1658C13.0139 14.099 13.4264 14.0188 13.5307 13.9865C14.5192 13.6835 15.0269 12.902 14.8642 11.9338H14.8649Z" fill="white"/>
<path d="M15.7949 13.5868C15.5249 13.007 15.4634 12.4468 15.6112 11.9248C15.6269 11.8693 15.6524 11.8235 15.6674 11.8235C15.7182 11.8419 15.766 11.8677 15.8092 11.9C15.9337 11.984 16.1827 12.125 16.8464 12.4865C17.6752 12.9388 18.1477 13.289 18.4694 13.688C18.7507 14.0383 18.9247 14.4373 19.0087 14.9233C19.0559 15.1985 19.0282 15.8608 18.9577 16.1383C18.7349 17.0128 18.2167 17.6998 17.4787 18.1003C17.409 18.1406 17.3369 18.1764 17.2627 18.2075C17.2522 18.2075 17.2912 18.1078 17.3504 17.9848C17.5979 17.4658 17.6272 16.9603 17.4389 16.3978C17.3242 16.0535 17.0894 15.6328 16.6162 14.9233C16.0657 14.0983 15.9307 13.8778 15.7949 13.5868ZM8.16968 16.715C8.92343 16.079 9.86018 15.6275 10.7144 15.4888C11.0819 15.4288 11.6954 15.4528 12.0359 15.5398C12.5819 15.6793 13.0709 15.9928 13.3252 16.3655C13.5727 16.73 13.6799 17.048 13.7902 17.7545C13.8352 18.0335 13.8824 18.3133 13.8967 18.377C13.9792 18.743 14.1419 19.0363 14.3429 19.1833C14.6617 19.4165 15.2114 19.4308 15.7514 19.2208C15.8079 19.1949 15.8673 19.1762 15.9284 19.1653C15.9479 19.1848 15.6764 19.367 15.4844 19.463C15.2579 19.5843 15.0041 19.6457 14.7472 19.6415C14.2522 19.6415 13.8412 19.3903 13.4984 18.8765C13.4309 18.7753 13.2794 18.473 13.1609 18.2038C12.7994 17.3788 12.6209 17.1268 12.2009 16.8515C11.8342 16.6115 11.3624 16.5688 11.0077 16.7428C10.5412 16.9715 10.4114 17.5678 10.7452 17.945C10.8779 18.095 11.1254 18.2248 11.3279 18.2495C11.4163 18.2612 11.5061 18.2538 11.5913 18.2278C11.6766 18.2018 11.7552 18.1578 11.822 18.0988C11.8887 18.0398 11.9421 17.9672 11.9783 17.8858C12.0146 17.8044 12.033 17.7161 12.0322 17.627C12.0322 17.378 11.9362 17.237 11.6962 17.1283C11.3684 16.9805 11.0159 17.153 11.0174 17.4613C11.0182 17.5925 11.0752 17.675 11.2072 17.735C11.2919 17.7725 11.2934 17.7763 11.2244 17.762C10.9237 17.699 10.8532 17.3368 11.0954 17.096C11.3857 16.8065 11.9864 16.934 12.1927 17.3285C12.2797 17.4943 12.2894 17.825 12.2137 18.0245C12.0449 18.4708 11.5514 18.7048 11.0512 18.5773C10.7107 18.4903 10.5719 18.3965 10.1617 17.9735C9.44843 17.2385 9.17168 17.096 8.14268 16.9355L7.94543 16.9048L8.17043 16.715H8.16968Z" fill="white"/>
<path fill-rule="evenodd" clip-rule="evenodd" d="M4.64697 2.51221L4.71897 2.59996C7.49997 6.00496 8.93697 7.77196 9.02847 7.89796C9.17847 8.10646 9.12222 8.29321 8.86422 8.44021C8.72097 8.52196 8.42547 8.60446 8.27847 8.60446C8.11122 8.60446 7.92297 8.52421 7.78572 8.39446C7.68897 8.30221 7.29822 7.71871 6.39597 6.31846C5.97346 5.65666 5.54545 4.99838 5.11197 4.34371C5.07522 4.30921 5.07597 4.30996 6.32547 6.54571C7.10997 7.94971 7.37547 8.44546 7.37547 8.51221C7.37547 8.64721 7.33797 8.71771 7.17147 8.90371C6.89397 9.21346 6.77022 9.56146 6.68022 10.2815C6.57972 11.0892 6.29772 11.6592 5.51472 12.635C5.05722 13.2065 4.98222 13.3115 4.86597 13.5417C4.72047 13.8312 4.68072 13.994 4.66422 14.36C4.64697 14.747 4.68072 14.9975 4.79922 15.3672C4.90272 15.6912 5.01072 15.9057 5.28672 16.3332C5.52522 16.703 5.66247 16.9775 5.66247 17.0847C5.66247 17.1702 5.67897 17.1702 6.04872 17.087C6.93297 16.8875 7.65072 16.5357 8.05497 16.1052C8.30472 15.839 8.36322 15.692 8.36547 15.3267C8.36622 15.0882 8.35797 15.038 8.29347 14.9007C8.18847 14.6772 7.99722 14.4912 7.57572 14.2032C7.02297 13.8252 6.78747 13.5207 6.72222 13.103C6.66822 12.7602 6.73047 12.518 7.03647 11.8775C7.35222 11.2145 7.43097 10.9325 7.48422 10.2642C7.51797 9.83221 7.56522 9.66196 7.68972 9.52546C7.81872 9.38296 7.93572 9.33421 8.25597 9.29071C8.77797 9.21946 9.11022 9.08446 9.38322 8.83321C9.62022 8.61421 9.71922 8.40346 9.73422 8.08696L9.74622 7.84696L9.61347 7.69246C9.42297 7.47046 7.84722 5.73196 4.88547 2.47546L4.80597 2.38921L4.64697 2.51296V2.51221ZM5.93247 14.7987C5.9848 14.7061 6.00042 14.5971 5.97625 14.4935C5.95209 14.3899 5.88989 14.2991 5.80197 14.2392C5.63097 14.1252 5.36472 14.1792 5.36472 14.3277C5.36472 14.3727 5.38947 14.4057 5.44572 14.435C5.54097 14.4837 5.54772 14.5392 5.47347 14.651C5.39772 14.765 5.40372 14.8655 5.49072 14.9337C5.63022 15.0432 5.82822 14.9825 5.93322 14.7987H5.93247ZM10.0755 9.41671C9.83022 9.49171 9.59247 9.75196 9.51822 10.0242C9.47322 10.19 9.49872 10.4817 9.56622 10.5717C9.67497 10.7172 9.78072 10.7555 10.0657 10.7532C10.6237 10.7495 11.1082 10.5102 11.1652 10.211C11.2117 9.96571 10.998 9.62596 10.7047 9.47596C10.5532 9.39946 10.2315 9.36871 10.0755 9.41671ZM10.728 9.92671C10.8142 9.80446 10.776 9.67171 10.6305 9.58321C10.3515 9.41296 9.92997 9.55321 9.92997 9.81721C9.92997 9.94771 10.1497 10.091 10.3507 10.091C10.4857 10.091 10.6687 10.0107 10.728 9.92671Z" fill="white"/>
</g>
<defs>
<clipPath id="clip0_16_456">
<rect width="24" height="24" fill="white"/>
</clipPath>
</defs>
</svg>
