<svg width="24" height="24" viewBox="0 0 24 24" fill="none" xmlns="http://www.w3.org/2000/svg">
<g clip-path="url(#clip0_479_2564)">
<path d="M12 24C18.6274 24 24 18.6274 24 12C24 5.37258 18.6274 0 12 0C5.37258 0 0 5.37258 0 12C0 18.6274 5.37258 24 12 24Z" fill="url(#paint0_linear_479_2564)"/>
<path fill-rule="evenodd" clip-rule="evenodd" d="M8.50195 7.8V16.8H16.002L8.50195 7.8Z" fill="url(#paint1_linear_479_2564)"/>
<path fill-rule="evenodd" clip-rule="evenodd" d="M1.00195 16.8H8.50195V7.8L1.00195 16.8Z" fill="white"/>
<path fill-rule="evenodd" clip-rule="evenodd" d="M2.40002 19.2C3.08402 20.106 3.89402 20.916 4.80002 21.6H19.2C20.106 20.916 20.916 20.106 21.6 19.2H2.40002Z" fill="#FC9965"/>
<path fill-rule="evenodd" clip-rule="evenodd" d="M4.80005 21.6C6.80405 23.106 9.30005 24 12 24C14.7 24 17.196 23.106 19.2 21.6H4.80005Z" fill="#FF2D55"/>
<path fill-rule="evenodd" clip-rule="evenodd" d="M16.098 12.6V19.2H21.6L16.098 12.6Z" fill="url(#paint2_linear_479_2564)"/>
<path fill-rule="evenodd" clip-rule="evenodd" d="M16.098 16.8H1.00195C1.37395 17.658 1.84795 18.462 2.39995 19.2H16.104V16.8H16.098Z" fill="#FFBC5B"/>
<path fill-rule="evenodd" clip-rule="evenodd" d="M10.6021 19.2H16.0981V12.6L10.6021 19.2Z" fill="white"/>
<path d="M16.098 10.8C17.7549 10.8 19.098 9.45685 19.098 7.8C19.098 6.14314 17.7549 4.8 16.098 4.8C14.4412 4.8 13.098 6.14314 13.098 7.8C13.098 9.45685 14.4412 10.8 16.098 10.8Z" fill="#FFC95B"/>
<path d="M8.50195 6C9.33038 6 10.002 5.32843 10.002 4.5C10.002 3.67157 9.33038 3 8.50195 3C7.67353 3 7.00195 3.67157 7.00195 4.5C7.00195 5.32843 7.67353 6 8.50195 6Z" fill="#FFC95B"/>
</g>
<defs>
<linearGradient id="paint0_linear_479_2564" x1="20.4852" y1="3.5148" x2="3.5148" y2="20.4852" gradientUnits="userSpaceOnUse">
<stop stop-color="#FF2D55"/>
<stop offset="1" stop-color="#FFBC5B"/>
</linearGradient>
<linearGradient id="paint1_linear_479_2564" x1="12.2494" y1="7.8" x2="12.2494" y2="16.8" gradientUnits="userSpaceOnUse">
<stop stop-color="#A524B3"/>
<stop offset="1" stop-color="#FF2D55"/>
</linearGradient>
<linearGradient id="paint2_linear_479_2564" x1="18.8472" y1="12.6" x2="18.8472" y2="19.2" gradientUnits="userSpaceOnUse">
<stop stop-color="#A524B3"/>
<stop offset="1" stop-color="#FF2D55"/>
</linearGradient>
<clipPath id="clip0_479_2564">
<rect width="24" height="24" fill="white"/>
</clipPath>
</defs>
</svg>
