<svg width="24" height="24" viewBox="0 0 24 24" fill="none" xmlns="http://www.w3.org/2000/svg">
<g clip-path="url(#clip0_16_426)">
<path d="M12 24C18.6274 24 24 18.6274 24 12C24 5.37258 18.6274 0 12 0C5.37258 0 0 5.37258 0 12C0 18.6274 5.37258 24 12 24Z" fill="white"/>
<path fill-rule="evenodd" clip-rule="evenodd" d="M15.8353 4.09757C15.8353 5.25603 14.1183 6.19515 12.0002 6.19515C9.88207 6.19515 8.16502 5.25603 8.16502 4.09757C8.16502 2.93912 9.88207 2 12.0002 2C14.1183 2 15.8353 2.93912 15.8353 4.09757ZM15.8353 19.9024C15.8353 21.0609 14.1183 22 12.0002 22C9.88207 22 8.16502 21.0609 8.16502 19.9024C8.16502 18.744 9.88207 17.8049 12.0002 17.8049C14.1183 17.8049 15.8353 18.744 15.8353 19.9024ZM6.65566 9.09869C7.7147 7.37374 7.70783 5.50551 6.6403 4.92589C5.57278 4.34627 3.84885 5.27474 2.78981 6.99969C1.73076 8.72465 1.73764 10.5929 2.80516 11.1725C3.87269 11.7521 5.59661 10.8236 6.65566 9.09869ZM21.195 12.8281C22.2618 13.4073 22.2681 15.2752 21.209 17.0002C20.15 18.7251 18.4266 19.6539 17.3598 19.0747C16.293 18.4955 16.2867 16.6275 17.3458 14.9026C18.4048 13.1776 20.1282 12.2489 21.195 12.8281ZM6.64082 19.0742C7.70835 18.4946 7.71522 16.6264 6.65618 14.9014C5.59713 13.1765 3.87321 12.248 2.80568 12.8276C1.73816 13.4072 1.73128 15.2754 2.79033 17.0004C3.84937 18.7253 5.5733 19.6538 6.64082 19.0742ZM21.2098 7.00087C22.2688 8.72582 22.2625 10.5937 21.1957 11.173C20.1289 11.7522 18.4056 10.8234 17.3466 9.09844C16.2875 7.37349 16.2938 5.50559 17.3606 4.92636C18.4274 4.34713 20.1507 5.27592 21.2098 7.00087Z" fill="#E6007A"/>
</g>
<defs>
<clipPath id="clip0_16_426">
<rect width="24" height="24" fill="white"/>
</clipPath>
</defs>
</svg>
