<svg width="24" height="24" viewBox="0 0 24 24" fill="none" xmlns="http://www.w3.org/2000/svg">
<g clip-path="url(#clip0_479_2552)">
<path d="M12 24C18.6274 24 24 18.6274 24 12C24 5.37258 18.6274 0 12 0C5.37258 0 0 5.37258 0 12C0 18.6274 5.37258 24 12 24Z" fill="#C4C7C7"/>
<path d="M6.42832 18L8.46018 14.4938L10.492 11L12.5115 7.49383L12.846 6.93827L12.9947 7.49383L13.6142 9.80247L12.9204 11L10.8885 14.4938L8.86903 18H11.2973L13.3292 14.4938L14.3823 12.679L14.8779 14.4938L15.8195 18H18L17.0584 14.4938L16.1168 11L15.869 10.0988L17.3805 7.49383H15.1752L15.1009 7.23457L14.3327 4.37037L14.2336 4H12.115L12.0655 4.07407L10.0832 7.49383L8.05133 11L6.03186 14.4938L4 18H6.42832Z" fill="white"/>
</g>
<defs>
<clipPath id="clip0_479_2552">
<rect width="24" height="24" fill="white"/>
</clipPath>
</defs>
</svg>
