<svg width="24" height="24" viewBox="0 0 24 24" fill="none" xmlns="http://www.w3.org/2000/svg">
<g clip-path="url(#clip0_16_439)">
<path d="M12 24C18.6274 24 24 18.6274 24 12C24 5.37258 18.6274 0 12 0C5.37258 0 0 5.37258 0 12C0 18.6274 5.37258 24 12 24Z" fill="#C4C7C7"/>
<path d="M3 13.8501H5.07902C5.86104 16.9019 8.56948 19 11.8883 19C14.7875 19 17.2289 17.3978 18.297 14.7657H15.9128C15.0545 16.1771 13.6431 16.9401 11.8883 16.9401C9.67575 16.9401 7.95913 15.7003 7.29155 13.8501H13.2044L13.624 12.8011H7.02452C6.98638 12.5341 6.9673 12.267 6.9673 12C6.9673 11.7139 6.98638 11.4278 7.02452 11.1608H14.3106L14.7493 10.1117H7.31063C7.99727 8.29973 9.69482 7.05995 11.8883 7.05995C13.6431 7.05995 15.0545 7.82289 15.9128 9.23433H18.297C17.2289 6.60218 14.7875 5 11.8883 5C8.58855 5 5.89918 7.09809 5.09809 10.1117H3.43869L3 11.1608H4.88828C4.86921 11.4278 4.85014 11.7139 4.85014 12C4.85014 12.267 4.86921 12.5341 4.88828 12.8011H3.43869L3 13.8501Z" fill="white"/>
</g>
<defs>
<clipPath id="clip0_16_439">
<rect width="24" height="24" fill="white"/>
</clipPath>
</defs>
</svg>
