<svg width="24" height="24" viewBox="0 0 24 24" fill="none" xmlns="http://www.w3.org/2000/svg">
<path fill-rule="evenodd" clip-rule="evenodd" d="M8.02132 5.29289C8.41184 4.90237 9.04501 4.90237 9.43553 5.29289C9.82606 5.68342 9.82606 6.31658 9.43553 6.70711L5.38528 10.7574H21C21.5523 10.7574 22 11.2051 22 11.7574C22 12.3096 21.5523 12.7574 21 12.7574H5.31421L9.4 16.8431C9.79052 17.2337 9.79052 17.8668 9.4 18.2574C9.00948 18.6479 8.37631 18.6479 7.98579 18.2574L2.60711 12.8787C2.50946 12.781 2.43623 12.6682 2.38742 12.5478C2.1517 12.3649 2 12.0788 2 11.7574C2 11.4128 2.17426 11.1089 2.43946 10.9291C2.48365 10.8495 2.53953 10.7747 2.60711 10.7071L8.02132 5.29289Z" fill="black"/>
</svg>
