<svg width="18" height="16" viewBox="0 0 18 16" fill="none" xmlns="http://www.w3.org/2000/svg">
<path d="M13.55 11.7602C15.3467 11.5818 16.75 10.0659 16.75 8.22222C16.75 6.08439 14.7871 4.40276 12.6872 4.70257C12.683 4.70318 12.6788 4.701 12.6768 4.69715C11.8733 3.09763 10.2176 2 8.30556 2C5.75842 2 3.66624 3.94791 3.43743 6.43534C3.43695 6.44051 3.43256 6.4445 3.42737 6.4445C1.97062 6.44425 0.75 7.64906 0.75 9.11111C0.75 10.5839 1.94391 11.7778 3.41667 11.7778H3.95" stroke="black" stroke-width="1.5" stroke-linecap="round"/>
<path d="M6.75 12L8.39643 13.6464C8.5917 13.8417 8.90828 13.8417 9.10354 13.6464L10.75 12" stroke="black" stroke-width="1.5" stroke-linecap="round"/>
<path d="M8.75 13.2L8.75 8.39999" stroke="black" stroke-width="1.5" stroke-linecap="round"/>
</svg>
