<svg width="24" height="24" viewBox="0 0 24 24" fill="none" xmlns="http://www.w3.org/2000/svg">
<circle cx="12" cy="12" r="10" fill="#EA0658"/>
<path d="M16.4964 8.51071C16.7745 8.2326 16.7745 7.78169 16.4964 7.50357C16.2183 7.22546 15.7674 7.22546 15.4893 7.50357L12 10.9929L8.51071 7.50357C8.2326 7.22546 7.78169 7.22546 7.50357 7.50357C7.22546 7.78169 7.22546 8.2326 7.50357 8.51071L10.9929 12L7.50357 15.4893C7.22546 15.7674 7.22546 16.2183 7.50357 16.4964C7.78169 16.7745 8.2326 16.7745 8.51071 16.4964L12 13.0071L15.4893 16.4964C15.7674 16.7745 16.2183 16.7745 16.4964 16.4964C16.7745 16.2183 16.7745 15.7674 16.4964 15.4893L13.0071 12L16.4964 8.51071Z" fill="white"/>
</svg>
