<svg width="24" height="24" viewBox="0 0 24 24" fill="none" xmlns="http://www.w3.org/2000/svg">
<mask id="mask0_16_1021" style="mask-type:alpha" maskUnits="userSpaceOnUse" x="0" y="0" width="24" height="24">
<rect width="24" height="24" fill="#D9D9D9"/>
</mask>
<g mask="url(#mask0_16_1021)">
<path d="M12.8 11.7L15.55 14.45C15.6833 14.5833 15.75 14.7543 15.75 14.963C15.75 15.171 15.6833 15.35 15.55 15.5C15.4 15.65 15.221 15.725 15.013 15.725C14.8043 15.725 14.625 15.65 14.475 15.5L11.55 12.575C11.4666 12.475 11.4043 12.3707 11.363 12.262C11.321 12.154 11.3 12.0417 11.3 11.925V7.75C11.3 7.53333 11.371 7.35433 11.513 7.213C11.6543 7.071 11.8333 7 12.05 7C12.25 7 12.425 7.071 12.575 7.213C12.725 7.35433 12.8 7.53333 12.8 7.75V11.7ZM11.975 20.5C10.025 20.5 8.28763 19.9127 6.76296 18.738C5.23763 17.5627 4.24163 16.0417 3.77496 14.175C3.70829 13.9583 3.72929 13.75 3.83796 13.55C3.94596 13.35 4.10829 13.225 4.32496 13.175C4.54163 13.125 4.73329 13.1667 4.89996 13.3C5.06663 13.4333 5.18329 13.6083 5.24996 13.825C5.64996 15.3583 6.47496 16.604 7.72496 17.562C8.97496 18.5207 10.3916 19 11.975 19C13.925 19 15.5793 18.3207 16.938 16.962C18.296 15.604 18.975 13.95 18.975 12C18.975 10.05 18.296 8.39567 16.938 7.037C15.5793 5.679 13.925 5 11.975 5C10.8916 5 9.87096 5.24167 8.91296 5.725C7.95429 6.20833 7.13329 6.875 6.44996 7.725H8.29996C8.51663 7.725 8.69596 7.79567 8.83796 7.937C8.97929 8.079 9.04996 8.25833 9.04996 8.475C9.04996 8.69167 8.97929 8.87067 8.83796 9.012C8.69596 9.154 8.51663 9.225 8.29996 9.225H4.87496C4.62496 9.225 4.41229 9.13733 4.23696 8.962C4.06229 8.78733 3.97496 8.575 3.97496 8.325V4.9C3.97496 4.68333 4.04596 4.504 4.18796 4.362C4.32929 4.22067 4.50829 4.15 4.72496 4.15C4.94163 4.15 5.12096 4.22067 5.26296 4.362C5.40429 4.504 5.47496 4.68333 5.47496 4.9V6.525C6.29163 5.55833 7.26663 4.81233 8.39996 4.287C9.53329 3.76233 10.725 3.5 11.975 3.5C13.1583 3.5 14.2666 3.725 15.3 4.175C16.3333 4.625 17.2333 5.23333 18 6C18.7666 6.76667 19.3706 7.66267 19.812 8.688C20.254 9.71267 20.475 10.8167 20.475 12C20.475 13.1833 20.254 14.2873 19.812 15.312C19.3706 16.3373 18.7666 17.2333 18 18C17.2333 18.7667 16.3333 19.375 15.3 19.825C14.2666 20.275 13.1583 20.5 11.975 20.5Z" fill="black"/>
</g>
</svg>
