<svg width="24" height="24" viewBox="0 0 24 24" fill="none" xmlns="http://www.w3.org/2000/svg">
<path fill-rule="evenodd" clip-rule="evenodd" d="M20.5 12C20.5 16.6944 16.6944 20.5 12 20.5C7.30558 20.5 3.5 16.6944 3.5 12C3.5 7.30558 7.30558 3.5 12 3.5C16.6944 3.5 20.5 7.30558 20.5 12ZM22 12C22 17.5228 17.5228 22 12 22C6.47715 22 2 17.5228 2 12C2 6.47715 6.47715 2 12 2C17.5228 2 22 6.47715 22 12ZM12.0639 5.904C12.7199 5.904 13.2319 6.43199 13.2319 7.072C13.2319 7.728 12.7199 8.256 12.0639 8.256C11.4239 8.256 10.8799 7.728 10.8799 7.072C10.8799 6.43199 11.4239 5.904 12.0639 5.904ZM12.0639 18C11.5779 18 11.1839 17.606 11.1839 17.12V10.88C11.1839 10.394 11.5779 10 12.0639 10C12.5499 10 12.9439 10.394 12.9439 10.88V17.12C12.9439 17.606 12.5499 18 12.0639 18Z" fill="black"/>
</svg>
