<svg width="16" height="16" viewBox="0 0 16 16" fill="none" xmlns="http://www.w3.org/2000/svg">
<g clip-path="url(#clip0_16_1030)">
<path fill-rule="evenodd" clip-rule="evenodd" d="M14.8 8C14.8 11.7555 11.7555 14.8 8 14.8C4.24446 14.8 1.2 11.7555 1.2 8C1.2 4.24446 4.24446 1.2 8 1.2C11.7555 1.2 14.8 4.24446 14.8 8ZM16 8C16 12.4183 12.4183 16 8 16C3.58172 16 0 12.4183 0 8C0 3.58172 3.58172 0 8 0C12.4183 0 16 3.58172 16 8ZM8.05111 3.12319C8.57591 3.12319 8.98551 3.54559 8.98551 4.05759C8.98551 4.58239 8.57591 5.00479 8.05111 5.00479C7.53911 5.00479 7.10391 4.58239 7.10391 4.05759C7.10391 3.54559 7.53911 3.12319 8.05111 3.12319ZM8.05111 12.8C7.6623 12.8 7.34711 12.4848 7.34711 12.096V7.10399C7.34711 6.71519 7.6623 6.39999 8.05111 6.39999C8.43991 6.39999 8.75511 6.71519 8.75511 7.104V12.096C8.75511 12.4848 8.43991 12.8 8.05111 12.8Z" fill="black"/>
</g>
<defs>
<clipPath id="clip0_16_1030">
<rect width="16" height="16" fill="white"/>
</clipPath>
</defs>
</svg>
