<svg width="24" height="24" viewBox="0 0 24 24" fill="none" xmlns="http://www.w3.org/2000/svg">
<circle cx="12" cy="12" r="7.25" stroke="black" stroke-width="1.5"/>
<path fill-rule="evenodd" clip-rule="evenodd" d="M12 20C16.4183 20 20 16.4183 20 12C20 7.58172 16.4183 4 12 4V20Z" fill="black"/>
<path fill-rule="evenodd" clip-rule="evenodd" d="M12.925 1.75C12.925 1.33579 12.5893 1 12.175 1C11.7608 1 11.425 1.33579 11.425 1.75V3H12.925V1.75ZM12.925 21H11.425V22.25C11.425 22.6642 11.7608 23 12.175 23C12.5893 23 12.925 22.6642 12.925 22.25V21Z" fill="black"/>
<path fill-rule="evenodd" clip-rule="evenodd" d="M19.9532 5.28249C20.2461 4.98959 20.2461 4.51472 19.9532 4.22183C19.6603 3.92893 19.1854 3.92893 18.8925 4.22183L18.0086 5.10571L19.0693 6.16637L19.9532 5.28249ZM6.34138 18.8943L5.28072 17.8336L4.39683 18.7175C4.10394 19.0104 4.10394 19.4853 4.39683 19.7782C4.68973 20.0711 5.1646 20.0711 5.45749 19.7782L6.34138 18.8943Z" fill="black"/>
<path fill-rule="evenodd" clip-rule="evenodd" d="M22.425 12.75C22.8393 12.75 23.175 12.4142 23.175 12C23.175 11.5858 22.8393 11.25 22.425 11.25L21.175 11.25L21.175 12.75L22.425 12.75ZM3.17505 12.75L3.17505 11.25L1.92505 11.25C1.51084 11.25 1.17505 11.5858 1.17505 12C1.17505 12.4142 1.51084 12.75 1.92505 12.75L3.17505 12.75Z" fill="black"/>
<path fill-rule="evenodd" clip-rule="evenodd" d="M18.8925 19.7782C19.1854 20.0711 19.6603 20.0711 19.9532 19.7782C20.2461 19.4853 20.2461 19.0104 19.9532 18.7175L19.0693 17.8336L18.0086 18.8943L18.8925 19.7782ZM5.28072 6.16637L6.34139 5.10571L5.4575 4.22183C5.16461 3.92894 4.68973 3.92894 4.39684 4.22183C4.10395 4.51472 4.10395 4.9896 4.39684 5.28249L5.28072 6.16637Z" fill="black"/>
</svg>
