<svg width="24" height="24" viewBox="0 0 24 24" fill="none" xmlns="http://www.w3.org/2000/svg">
<path fill-rule="evenodd" clip-rule="evenodd" d="M4 3.5H9C9.27614 3.5 9.5 3.72386 9.5 4V9C9.5 9.27614 9.27614 9.5 9 9.5H4C3.72386 9.5 3.5 9.27614 3.5 9V4C3.5 3.72386 3.72386 3.5 4 3.5ZM2 4C2 2.89543 2.89543 2 4 2H9C10.1046 2 11 2.89543 11 4V9C11 10.1046 10.1046 11 9 11H4C2.89543 11 2 10.1046 2 9V4ZM15 3.5H20C20.2761 3.5 20.5 3.72386 20.5 4V9C20.5 9.27614 20.2761 9.5 20 9.5H15C14.7239 9.5 14.5 9.27614 14.5 9V4C14.5 3.72386 14.7239 3.5 15 3.5ZM13 4C13 2.89543 13.8954 2 15 2H20C21.1046 2 22 2.89543 22 4V9C22 10.1046 21.1046 11 20 11H15C13.8954 11 13 10.1046 13 9V4ZM9.5 15C9.5 14.7239 9.27614 14.5 9 14.5H4C3.72386 14.5 3.5 14.7239 3.5 15V20C3.5 20.2761 3.72386 20.5 4 20.5H9C9.27614 20.5 9.5 20.2761 9.5 20V15ZM4 13C2.89543 13 2 13.8954 2 15V20C2 21.1046 2.89543 22 4 22H9C10.1046 22 11 21.1046 11 20V15C11 13.8954 10.1046 13 9 13H4ZM6.5 8C7.32843 8 8 7.32843 8 6.5C8 5.67157 7.32843 5 6.5 5C5.67157 5 5 5.67157 5 6.5C5 7.32843 5.67157 8 6.5 8ZM19 6.5C19 7.32843 18.3284 8 17.5 8C16.6716 8 16 7.32843 16 6.5C16 5.67157 16.6716 5 17.5 5C18.3284 5 19 5.67157 19 6.5ZM6.5 19C7.32843 19 8 18.3284 8 17.5C8 16.6716 7.32843 16 6.5 16C5.67157 16 5 16.6716 5 17.5C5 18.3284 5.67157 19 6.5 19ZM13 13H15V15H13V13ZM17 15V17H15V15H17ZM17 15V13H19V15H17ZM20 19V17H18V19H16V21H18V19H20ZM20 19H22V21H20V19ZM22 13H20V15H22V13ZM15 19H13V21H15V19Z" fill="black"/>
</svg>
