<svg width="16" height="16" viewBox="0 0 16 16" fill="none" xmlns="http://www.w3.org/2000/svg">
<path fill-rule="evenodd" clip-rule="evenodd" d="M5 1.5H2C1.72386 1.5 1.5 1.72386 1.5 2V5C1.5 5.27614 1.72386 5.5 2 5.5H5C5.27614 5.5 5.5 5.27614 5.5 5V2C5.5 1.72386 5.27614 1.5 5 1.5ZM2 0C0.895431 0 0 0.89543 0 2V5C0 6.10457 0.89543 7 2 7H5C6.10457 7 7 6.10457 7 5V2C7 0.895431 6.10457 0 5 0H2ZM14 1.5H11C10.7239 1.5 10.5 1.72386 10.5 2V5C10.5 5.27614 10.7239 5.5 11 5.5H14C14.2761 5.5 14.5 5.27614 14.5 5V2C14.5 1.72386 14.2761 1.5 14 1.5ZM11 0C9.89543 0 9 0.89543 9 2V5C9 6.10457 9.89543 7 11 7H14C15.1046 7 16 6.10457 16 5V2C16 0.895431 15.1046 0 14 0H11ZM5 10.5C5.27614 10.5 5.5 10.7239 5.5 11V14C5.5 14.2761 5.27614 14.5 5 14.5H2C1.72386 14.5 1.5 14.2761 1.5 14V11C1.5 10.7239 1.72386 10.5 2 10.5H5ZM0 11C0 9.89543 0.895431 9 2 9H5C6.10457 9 7 9.89543 7 11V14C7 15.1046 6.10457 16 5 16H2C0.89543 16 0 15.1046 0 14V11ZM4 3.5C4 3.77614 3.77614 4 3.5 4C3.22386 4 3 3.77614 3 3.5C3 3.22386 3.22386 3 3.5 3C3.77614 3 4 3.22386 4 3.5ZM12.5 4C12.7761 4 13 3.77614 13 3.5C13 3.22386 12.7761 3 12.5 3C12.2239 3 12 3.22386 12 3.5C12 3.77614 12.2239 4 12.5 4ZM4 12.5C4 12.7761 3.77614 13 3.5 13C3.22386 13 3 12.7761 3 12.5C3 12.2239 3.22386 12 3.5 12C3.77614 12 4 12.2239 4 12.5ZM11 9H9V11H11V9ZM16 14H14V16H16V14ZM14 9H16V11H14V9ZM11 14H9V16H11V14ZM12 12H13V13H12V12Z" fill="black"/>
</svg>
