<svg width="24" height="24" viewBox="0 0 24 24" fill="none" xmlns="http://www.w3.org/2000/svg">
<path fill-rule="evenodd" clip-rule="evenodd" d="M14 3C13.4477 3 13 3.44772 13 4V20C13 20.5523 13.4477 21 14 21C14.5523 21 15 20.5523 15 20V4C15 3.44772 14.5523 3 14 3ZM19 11C18.4477 11 18 11.4477 18 12V20C18 20.5523 18.4477 21 19 21C19.5523 21 20 20.5523 20 20V12C20 11.4477 19.5523 11 19 11ZM8 10C8 9.44772 8.44772 9 9 9C9.55228 9 10 9.44772 10 10V20C10 20.5523 9.55228 21 9 21C8.44772 21 8 20.5523 8 20V10ZM4 14C3.44772 14 3 14.4477 3 15V20C3 20.5523 3.44772 21 4 21C4.55228 21 5 20.5523 5 20V15C5 14.4477 4.55228 14 4 14Z" fill="black"/>
</svg>
