<svg width="16" height="16" viewBox="0 0 16 16" fill="none" xmlns="http://www.w3.org/2000/svg">
<g clip-path="url(#clip0_1389_1481)">
<circle cx="3" cy="3" r="3" transform="matrix(-1 0 0 1 11 5)" stroke="black" stroke-width="1.5"/>
<path d="M8.00037 1L8.00037 0.25H8.00037V1ZM11.308 3.0332L10.9502 3.69236L10.9503 3.69243L11.308 3.0332ZM11.1859 12.7695L10.8281 12.1104L10.828 12.1104L11.1859 12.7695ZM8.00037 15V15.75H8.00037L8.00037 15ZM4.72791 12.7227L5.08578 12.0635L5.0857 12.0635L4.72791 12.7227ZM4.60681 3.08008L4.9646 3.73924L4.96461 3.73923L4.60681 3.08008ZM6.26951 1.19151L6.10508 0.459752V0.459752L6.26951 1.19151ZM6.46964 14.8499L6.32394 15.5856L6.46964 14.8499ZM10.1328 14.0895L10.8573 14.2835L10.1328 14.0895ZM9.4387 14.8672L9.30156 14.1298L9.4387 14.8672ZM13.8401 12.3379L13.2662 11.855V11.855L13.8401 12.3379ZM12.8873 12.5635L13.0696 11.836L12.8873 12.5635ZM14.9901 5.58586L15.6885 5.3125L14.9901 5.58586ZM14.6494 6.59662L15.1573 7.14851L14.6494 6.59662ZM1.17768 10.8001L1.858 10.4845L1.17768 10.8001ZM1.44187 9.78L0.893006 9.26888L1.44187 9.78ZM12.8418 3.27418L12.7105 2.53576L12.8418 3.27418ZM13.7052 3.50603L13.1458 4.00559L13.7052 3.50603ZM2.23941 3.56788L1.67406 3.07506L2.23941 3.56788ZM14.5396 9.79473L13.9953 10.3108L14.5396 9.79473ZM10.2988 1.85703L11.0074 1.61127L10.2988 1.85703ZM8.00037 1L8.00036 1.75C8.51197 1.75 9.00944 1.80379 9.48705 1.90504L9.64258 1.17135L9.79812 0.437651C9.21905 0.314892 8.61735 0.250001 8.00037 0.25L8.00037 1ZM10.2988 1.85703L9.59023 2.10279C9.81821 2.76014 10.2875 3.33265 10.9502 3.69236L11.308 3.0332L11.6658 2.37405C11.3346 2.19428 11.1138 1.91811 11.0074 1.61127L10.2988 1.85703ZM11.308 3.0332L10.9503 3.69243C11.5903 4.03963 12.3059 4.13122 12.9731 4.0126L12.8418 3.27418L12.7105 2.53576C12.3541 2.59913 11.9864 2.54801 11.6656 2.37398L11.308 3.0332ZM13.7052 3.50603L13.1458 4.00559C13.6361 4.55469 14.026 5.18052 14.2917 5.85923L14.9901 5.58586L15.6885 5.3125C15.3552 4.46104 14.869 3.68323 14.2646 3.00648L13.7052 3.50603ZM14.6494 6.59662L14.1415 6.04474C13.5478 6.59115 13.1732 7.37677 13.1732 8.25H13.9232H14.6732C14.6732 7.8144 14.8585 7.42344 15.1573 7.14851L14.6494 6.59662ZM13.9232 8.25H13.1732C13.1732 9.04888 13.487 9.77477 13.9953 10.3108L14.5396 9.79473L15.0838 9.27866C14.8285 9.00943 14.6732 8.64876 14.6732 8.25H13.9232ZM14.8107 10.8252L14.1319 10.5063C13.9046 10.9901 13.6131 11.4428 13.2662 11.855L13.8401 12.3379L14.4139 12.8208C14.8426 12.3114 15.2054 11.7488 15.4895 11.1441L14.8107 10.8252ZM12.8873 12.5635L13.0696 11.836C12.3412 11.6535 11.5381 11.725 10.8281 12.1104L11.1859 12.7695L11.5437 13.4287C11.9 13.2353 12.3144 13.1932 12.7051 13.291L12.8873 12.5635ZM11.1859 12.7695L10.828 12.1104C10.0998 12.5059 9.60588 13.1576 9.4083 13.8955L10.1328 14.0895L10.8573 14.2835C10.9494 13.9395 11.1805 13.6259 11.5438 13.4286L11.1859 12.7695ZM9.4387 14.8672L9.30156 14.1298C8.88036 14.2082 8.4455 14.25 8.00036 14.25L8.00037 15L8.00037 15.75C8.53971 15.75 9.06637 15.6993 9.57585 15.6045L9.4387 14.8672ZM8.00037 15V14.25C7.52541 14.25 7.06232 14.2027 6.61535 14.1142L6.46964 14.8499L6.32394 15.5856C6.86496 15.6928 7.42564 15.75 8.00037 15.75V15ZM5.7855 14.0651L6.51227 13.8799C6.32107 13.1297 5.82485 12.4648 5.08578 12.0635L4.72791 12.7227L4.37003 13.3818C4.73778 13.5814 4.96956 13.9004 5.05874 14.2503L5.7855 14.0651ZM4.72791 12.7227L5.0857 12.0635C4.38762 11.6846 3.59897 11.6086 2.88 11.7797L3.05361 12.5093L3.22721 13.239C3.61234 13.1473 4.01932 13.1914 4.37011 13.3818L4.72791 12.7227ZM2.10343 12.2722L2.68345 11.7967C2.35354 11.3942 2.07582 10.9538 1.858 10.4845L1.17768 10.8001L0.497362 11.1158C0.76935 11.702 1.115 12.2494 1.52341 12.7476L2.10343 12.2722ZM1.44187 9.78L1.99074 10.2911C2.48808 9.75705 2.79431 9.03906 2.79431 8.25H2.04431H1.29431C1.29431 8.6439 1.14279 9.00065 0.893006 9.26888L1.44187 9.78ZM2.04431 8.25H2.79431C2.79431 7.38693 2.42825 6.6096 1.84654 6.06423L1.33358 6.61138L0.820613 7.15852C1.11334 7.43296 1.29431 7.81965 1.29431 8.25H2.04431ZM1.00106 5.6107L1.70064 5.88106C1.95746 5.21649 2.33275 4.60218 2.80476 4.06071L2.23941 3.56788L1.67406 3.07506C1.09161 3.74322 0.623509 4.50706 0.301481 5.34035L1.00106 5.6107ZM3.10001 3.32603L2.97723 4.06591C3.6342 4.17494 4.33604 4.08041 4.9646 3.73924L4.60681 3.08008L4.24902 2.42092C3.93396 2.59194 3.57354 2.64436 3.2228 2.58615L3.10001 3.32603ZM4.60681 3.08008L4.96461 3.73923C5.63711 3.37419 6.1094 2.79021 6.33316 2.12145L5.62192 1.88348L4.91067 1.6455C4.80618 1.95779 4.58435 2.2389 4.24901 2.42093L4.60681 3.08008ZM6.26951 1.19151L6.43393 1.92326C6.93615 1.81041 7.46046 1.75 8.00037 1.75V1V0.25C7.34826 0.25 6.71368 0.322998 6.10508 0.459752L6.26951 1.19151ZM5.62192 1.88348L6.33316 2.12145C6.36333 2.03128 6.40053 1.9698 6.42902 1.93697C6.45386 1.90835 6.45608 1.91828 6.43393 1.92326L6.26951 1.19151L6.10508 0.459752C5.39917 0.61837 5.05187 1.22349 4.91067 1.6455L5.62192 1.88348ZM1.33358 6.61138L1.84654 6.06423C1.77182 5.99418 1.72902 5.92547 1.71219 5.88104C1.69817 5.84405 1.71125 5.85359 1.70064 5.88106L1.00106 5.6107L0.301481 5.34035C-0.000266552 6.12116 0.451528 6.81249 0.820613 7.15852L1.33358 6.61138ZM3.05361 12.5093L2.88 11.7797C2.79512 11.7999 2.72775 11.798 2.68956 11.7899C2.65743 11.7831 2.66814 11.778 2.68345 11.7967L2.10343 12.2722L1.52341 12.7476C2.00724 13.3379 2.75031 13.3524 3.22721 13.239L3.05361 12.5093ZM6.46964 14.8499L6.61535 14.1142C6.64015 14.1191 6.6375 14.1319 6.60986 14.0974C6.57779 14.0573 6.5386 13.9832 6.51227 13.8799L5.7855 14.0651L5.05874 14.2503C5.17838 14.7198 5.53187 15.4288 6.32394 15.5856L6.46964 14.8499ZM10.1328 14.0895L9.4083 13.8955C9.38063 13.9988 9.34043 14.0728 9.3077 14.1127C9.27945 14.1472 9.27678 14.1344 9.30156 14.1298L9.4387 14.8672L9.57585 15.6045C10.3701 15.4568 10.732 14.7513 10.8573 14.2835L10.1328 14.0895ZM13.8401 12.3379L13.2662 11.855C13.2816 11.8367 13.2921 11.842 13.2598 11.8484C13.2215 11.8561 13.1541 11.8572 13.0696 11.836L12.8873 12.5635L12.7051 13.291C13.1808 13.4102 13.9231 13.4041 14.4139 12.8208L13.8401 12.3379ZM14.9901 5.58586L14.2917 5.85923C14.2807 5.83129 14.2942 5.82139 14.2798 5.85909C14.2623 5.90445 14.2181 5.9743 14.1415 6.04474L14.6494 6.59662L15.1573 7.14851C15.5331 6.80265 15.998 6.10321 15.6885 5.3125L14.9901 5.58586ZM1.17768 10.8001L1.858 10.4845C1.87016 10.5107 1.85787 10.5206 1.86938 10.4826C1.88317 10.4372 1.92114 10.3659 1.99074 10.2911L1.44187 9.78L0.893006 9.26888C0.547913 9.63945 0.145832 10.3583 0.497362 11.1158L1.17768 10.8001ZM12.8418 3.27418L12.9731 4.0126C13.0496 3.99899 13.1075 4.0029 13.14 4.01053C13.1679 4.01708 13.1599 4.0214 13.1458 4.00559L13.7052 3.50603L14.2646 3.00648C13.8091 2.4963 13.1537 2.45697 12.7105 2.53576L12.8418 3.27418ZM2.23941 3.56788L2.80476 4.06071C2.79074 4.07679 2.7826 4.07262 2.81035 4.06576C2.84272 4.05776 2.90052 4.05318 2.97723 4.06591L3.10001 3.32603L3.2228 2.58615C2.77888 2.51248 2.12371 2.55923 1.67406 3.07506L2.23941 3.56788ZM14.5396 9.79473L13.9953 10.3108C14.0667 10.386 14.1059 10.4584 14.1202 10.5048C14.1321 10.5434 14.1194 10.533 14.1319 10.5063L14.8107 10.8252L15.4895 11.1441C15.8497 10.3775 15.4355 9.6496 15.0838 9.27866L14.5396 9.79473ZM9.64258 1.17135L9.48705 1.90504C9.46469 1.9003 9.46675 1.89024 9.49199 1.91868C9.52095 1.95132 9.55896 2.01262 9.59023 2.10279L10.2988 1.85703L11.0074 1.61127C10.8616 1.19076 10.5072 0.58798 9.79812 0.437651L9.64258 1.17135Z" fill="black"/>
</g>
<defs>
<clipPath id="clip0_1389_1481">
<rect width="16" height="16" fill="white"/>
</clipPath>
</defs>
</svg>
