<svg width="16" height="18" viewBox="0 0 16 18" fill="none" xmlns="http://www.w3.org/2000/svg">
<path d="M1.83207 5.57877C1.12057 4.6301 1.79747 3.27631 2.98331 3.27631H12.385C13.5709 3.27631 14.2478 4.6301 13.5363 5.57877C13.0173 6.27069 12.7368 7.11227 12.7368 7.97717V14.75C12.7368 15.8546 11.8414 16.75 10.7368 16.75H4.63154C3.52697 16.75 2.63154 15.8546 2.63154 14.75V7.97717C2.63154 7.11227 2.35102 6.27069 1.83207 5.57877Z" stroke="black" stroke-width="1.5"/>
<path d="M9.36816 12.5394L9.36816 7.48682" stroke="black" stroke-width="1.5" stroke-linecap="round" stroke-linejoin="round"/>
<path d="M6 12.5394L6 7.48682" stroke="black" stroke-width="1.5" stroke-linecap="round" stroke-linejoin="round"/>
<path d="M11.0524 3.27632L10.6661 2.11754C10.3939 1.30086 9.62963 0.75 8.76877 0.75H6.59918C5.73831 0.75 4.97404 1.30086 4.70181 2.11754L4.31555 3.27632" stroke="black" stroke-width="1.5" stroke-linecap="round"/>
</svg>
