<svg width="24" height="24" viewBox="0 0 24 24" fill="none" xmlns="http://www.w3.org/2000/svg">
<path d="M18 17.2003C20.2459 16.9773 22 15.0824 22 12.7778C22 10.1049 19.5452 8.00249 16.9198 8.37847C16.9155 8.37908 16.9113 8.3769 16.9093 8.37305C15.9052 6.37277 13.8351 5 11.4444 5C8.25974 5 5.64402 7.43609 5.35907 10.5465C5.3586 10.5516 5.35421 10.5556 5.34902 10.5556C3.52707 10.554 2 12.0606 2 13.8889C2 15.7298 3.49238 17.2222 5.33333 17.2222H6" stroke="black" stroke-width="1.5" stroke-linecap="round"/>
<path d="M9.5 15.5L11.6464 13.3536C11.8417 13.1583 12.1583 13.1583 12.3535 13.3536L14.5 15.5" stroke="black" stroke-width="1.5" stroke-linecap="round"/>
<path d="M12 14L12 20" stroke="black" stroke-width="1.5" stroke-linecap="round"/>
</svg>
