<svg width="24" height="24" viewBox="0 0 24 24" fill="none" xmlns="http://www.w3.org/2000/svg">
<path d="M12.2854 21.1269C10.9687 21.1269 9.7314 20.8769 8.5734 20.3769C7.41473 19.8769 6.4104 19.2019 5.5604 18.3519C4.7104 17.5019 4.0354 16.4976 3.5354 15.3389C3.0354 14.1809 2.7854 12.9436 2.7854 11.6269C2.7854 10.3103 3.0354 9.0726 3.5354 7.91394C4.0354 6.75594 4.7104 5.75194 5.5604 4.90194C6.4104 4.05194 7.41473 3.37694 8.5734 2.87694C9.7314 2.37694 10.9687 2.12694 12.2854 2.12694C13.6021 2.12694 14.8397 2.37694 15.9984 2.87694C17.1564 3.37694 18.1604 4.05194 19.0104 4.90194C19.8604 5.75194 20.5354 6.75594 21.0354 7.91394C21.5354 9.0726 21.7854 10.3103 21.7854 11.6269C21.7854 12.9436 21.5354 14.1809 21.0354 15.3389C20.5354 16.4976 19.8604 17.5019 19.0104 18.3519C18.1604 19.2019 17.1564 19.8769 15.9984 20.3769C14.8397 20.8769 13.6021 21.1269 12.2854 21.1269ZM12.2854 19.6269C14.5021 19.6269 16.3897 18.8479 17.9484 17.2899C19.5064 15.7313 20.2854 13.8436 20.2854 11.6269C20.2854 9.41027 19.5064 7.5226 17.9484 5.96394C16.3897 4.40594 14.5021 3.62694 12.2854 3.62694C10.0687 3.62694 8.1814 4.40594 6.6234 5.96394C5.06473 7.5226 4.2854 9.41027 4.2854 11.6269C4.2854 13.8436 5.06473 15.7313 6.6234 17.2899C8.1814 18.8479 10.0687 19.6269 12.2854 19.6269Z" fill="#6432FA"/>
</svg>
